<svg width="47" height="59" viewBox="0 0 47 59" fill="none" xmlns="http://www.w3.org/2000/svg">
<rect x="1.5" y="1.5" width="44" height="56" rx="3.5" stroke="white" stroke-width="3"/>
<path d="M5 2H42C43.6569 2 45 3.34315 45 5V19H2V5C2 3.34315 3.34315 2 5 2Z" stroke="white" stroke-width="4"/>
<rect x="2" y="19" width="14" height="12" rx="6" stroke="white" stroke-width="4" stroke-linejoin="round"/>
<rect x="2" y="19" width="14" height="12" rx="6" stroke="white" stroke-width="4" stroke-linejoin="round"/>
<rect x="2" y="32" width="14" height="12" rx="6" stroke="white" stroke-width="4"/>
<rect x="2" y="45" width="14" height="12" rx="6" stroke="white" stroke-width="4"/>
<rect x="17" y="19" width="14" height="12" rx="6" stroke="white" stroke-width="4"/>
<rect x="17" y="32" width="14" height="12" rx="6" stroke="white" stroke-width="4"/>
<rect x="17" y="45" width="14" height="12" rx="6" stroke="white" stroke-width="4"/>
<rect x="31" y="19" width="14" height="12" rx="6" stroke="white" stroke-width="4"/>
<rect x="31" y="32" width="14" height="25" rx="7" stroke="white" stroke-width="4"/>
<rect x="14" y="29" width="5" height="5" fill="white"/>
<rect x="14" y="42" width="5" height="5" fill="white"/>
<rect x="29" y="29" width="5" height="5" fill="white"/>
</svg>
