<svg width="15" height="15" viewBox="0 0 15 15" fill="none" xmlns="http://www.w3.org/2000/svg">
<path fill-rule="evenodd" clip-rule="evenodd" d="M5.74123 14.4528V9.55318H3.95402V7.45333H5.74123C5.74123 4.53687 5.78008 2.67034 10.0538 3.0592L10.0927 5.04239C7.99467 5.23682 7.95582 4.69241 7.95582 7.45333L9.89844 7.41444C9.89844 7.64776 9.74303 9.43652 9.47106 9.51429L7.95582 9.55318V14.4139C8.49975 14.5306 10.6366 14.4917 11.1417 14.3751C12.0353 14.1806 12.7735 13.6362 13.2009 13.0529C14.2888 11.6141 13.9779 9.2032 13.9779 7.14224C13.9779 4.92573 14.2111 2.787 12.8512 1.54264C11.4525 0.220513 9.47106 0.531602 7.17877 0.531602C4.84762 0.531602 3.02156 0.181627 1.3509 1.3871C-0.242045 2.55368 0.0687741 4.88684 0.0687741 6.75338C0.0687741 8.69768 -0.242045 11.4197 0.690413 12.8196C1.73943 14.5306 3.25467 14.4528 5.74123 14.4528Z" fill="#FEFEFE"/>
</svg>
