<svg width="15" height="15" viewBox="0 0 15 15" fill="none" xmlns="http://www.w3.org/2000/svg">
<path fill-rule="evenodd" clip-rule="evenodd" d="M2.84087 0.609317C0.619451 1.11283 -0.00410526 2.70083 0.034867 4.83108C0.034867 5.99304 -0.0430775 10.9894 0.112811 11.6866C0.307673 12.6549 0.892256 13.3521 1.47684 13.7781C2.25628 14.3204 3.23059 14.3978 4.36079 14.3978C5.8807 14.3978 10.0118 14.5915 11.2199 14.3204C12.2332 14.1267 12.9347 13.507 13.3244 12.926C13.948 12.0352 13.948 11.3768 13.948 10.0986C13.948 8.58807 14.1428 4.4825 13.87 3.28181C13.6362 2.23605 13.0906 1.57761 12.506 1.19029C11.5706 0.531854 10.9471 0.531854 9.66101 0.531854C8.14109 0.531854 4.04901 0.338195 2.84087 0.609317ZM6.5822 5.76065C5.72481 5.99304 5.02331 6.8064 5.29612 7.89089C5.45201 8.70426 6.38734 9.44016 7.43959 9.16904C9.58306 8.6268 8.84259 5.2184 6.5822 5.76065ZM4.01004 3.35927C2.68498 3.78532 2.72395 4.75362 2.72395 6.30289C2.72395 10.7958 2.21731 11.7253 5.72481 11.7253C7.94623 11.7253 10.3625 12.1901 11.064 10.6796C11.3758 9.98241 11.2978 4.98601 11.142 4.52123C10.7133 3.01069 9.1154 3.24308 8.18006 3.24308C7.32268 3.24308 4.63359 3.12688 4.01004 3.35927ZM9.19334 4.32757C9.07643 4.83108 9.03745 5.29586 9.66101 5.3346C10.2846 5.3346 10.3235 4.83108 10.2066 4.32757C9.8169 4.09518 9.58306 4.05645 9.19334 4.32757ZM6.50426 4.90855C5.1792 5.17967 4.08798 6.30289 4.39976 7.96836C4.98434 11.338 10.2846 10.4085 9.58306 6.9226C9.31026 5.68318 8.06315 4.55996 6.50426 4.90855ZM4.04901 2.42971C2.52909 2.70083 1.86656 3.86279 1.86656 5.37333C1.82759 6.57401 1.71067 9.40143 1.90553 10.4472C2.06142 11.2218 2.45115 11.6479 2.87984 12.0352C3.42545 12.4612 4.04901 12.5774 4.9064 12.5774C6.11454 12.5774 8.95951 12.7324 9.97279 12.5387C11.3758 12.2676 12.1163 11.1831 12.1163 9.55636C12.1163 6.14796 13.0126 2.35225 9.1154 2.35225C7.90726 2.35225 5.06229 2.23605 4.04901 2.42971Z" fill="#FEFEFE"/>
</svg>
