<svg width="10" height="13" viewBox="0 0 10 13" fill="none" xmlns="http://www.w3.org/2000/svg">
<path fill-rule="evenodd" clip-rule="evenodd" d="M1.506 3.19684H7.96898C8.6115 3.19684 9.14063 3.72597 9.14063 4.36849V10.8315C9.14063 11.474 8.6115 12.0031 7.96898 12.0031H1.506C0.863484 12.0031 0.334351 11.474 0.334351 10.8315V4.36849C0.334351 3.72597 0.863484 3.19684 1.506 3.19684ZM1.58159 3.83936H7.93119C8.23355 3.83936 8.53591 4.10392 8.53591 4.44408V10.7937C8.53591 11.096 8.23355 11.3984 7.93119 11.3984H1.58159C1.24144 11.3984 0.976869 11.096 0.976869 10.7937V4.44408C0.976869 4.10392 1.24144 3.83936 1.58159 3.83936Z" fill="#FEFEFE"/>
<path fill-rule="evenodd" clip-rule="evenodd" d="M2.86664 0.853516H6.60837C6.98632 0.853516 7.28868 1.15588 7.28868 1.53383V5.16217H6.57057V1.57162H2.90443V5.16217H2.22412V1.53383C2.22412 1.15588 2.52648 0.853516 2.86664 0.853516Z" fill="#FEFEFE"/>
</svg>
