<svg width="15" height="15" viewBox="0 0 15 15" fill="none" xmlns="http://www.w3.org/2000/svg">
<path fill-rule="evenodd" clip-rule="evenodd" d="M3.48746 0.609317C1.54426 1.03537 0.533792 2.39098 0.533792 4.63742C0.533792 6.22543 0.339471 10.1761 0.61152 11.4929C1.03902 13.5457 2.67131 14.4366 4.61452 14.3978C6.24681 14.3978 10.2887 14.5915 11.5712 14.3204C13.631 13.8943 14.4471 12.2289 14.4471 10.2923C14.4471 9.13031 14.5248 4.21137 14.3694 3.47547C14.1751 2.46844 13.631 1.81 13.0869 1.30649C12.3873 0.725513 11.5712 0.531854 10.3664 0.531854C8.81183 0.531854 4.73111 0.338195 3.48746 0.609317ZM7.25727 5.91557C6.3634 5.99304 5.62498 5.60572 4.96429 5.2184C4.10928 4.79235 3.83724 4.4825 3.29314 3.94025C2.55472 5.56699 3.60405 6.14796 3.83724 6.53528L3.02109 6.34162C2.98223 6.8064 3.17655 7.30992 3.37087 7.61977C3.60405 7.89089 3.8761 7.96836 4.14815 8.12328C4.38133 8.23948 4.3036 8.16202 4.45906 8.31694H3.72064C3.83724 8.70426 4.10928 9.09158 4.38133 9.28524C4.69224 9.4789 5.11975 9.51763 5.50839 9.71129C4.73111 10.2923 3.91496 10.5247 2.71018 10.4859C3.52632 11.4542 7.25727 11.9577 9.31707 10.1373C10.0555 9.51763 10.7162 8.82046 11.1048 7.58104C11.338 6.88387 11.2991 6.30289 11.4546 5.72191C11.61 5.14094 12.1153 5.14094 12.3485 4.4825L11.3769 4.75362C11.61 4.3663 11.8044 4.32757 11.9987 3.74659C11.7266 3.82406 11.5712 3.94025 11.2991 4.01771C10.2887 4.40503 10.5996 3.32054 8.96729 3.59166C7.84023 3.78532 7.25727 4.63742 7.25727 5.91557Z" fill="#FEFEFE"/>
</svg>
