<svg width="9" height="10" viewBox="0 0 9 10" fill="none" xmlns="http://www.w3.org/2000/svg">
<path fill-rule="evenodd" clip-rule="evenodd" d="M1.31545 0.196838H7.81623C8.45874 0.196838 8.98788 0.725971 8.98788 1.36849V7.83147C8.98788 8.47399 8.45874 9.00312 7.81623 9.00312H1.31545C0.672932 9.00312 0.143799 8.47399 0.143799 7.83147V1.36849C0.143799 0.725971 0.672932 0.196838 1.31545 0.196838ZM5.47292 5.79053C6.56898 6.16848 7.32489 7.18895 7.32489 8.3984H7.74064C8.08079 8.3984 8.34536 8.09604 8.34536 7.79368V1.44408C8.34536 1.10392 8.08079 0.839357 7.74064 0.839357H1.39104C1.05088 0.839357 0.786317 1.10392 0.786317 1.44408V7.79368C0.786317 8.09604 1.05088 8.3984 1.39104 8.3984H1.80679C1.80679 7.18895 2.56269 6.16848 3.62096 5.79053C3.05403 5.45037 2.63828 4.80785 2.63828 4.08974C2.63828 3.03148 3.50757 2.16219 4.56584 2.16219C5.6241 2.16219 6.49339 3.03148 6.49339 4.08974C6.49339 4.80785 6.07765 5.45037 5.47292 5.79053ZM6.90914 8.3984C6.90914 7.07557 5.85088 6.0173 4.56584 6.0173C3.24301 6.0173 2.22254 7.07557 2.22254 8.3984H6.90914ZM4.56584 2.61573C5.39733 2.61573 6.03985 3.25825 6.03985 4.08974C6.03985 4.92124 5.39733 5.60155 4.56584 5.60155C3.73434 5.60155 3.05403 4.92124 3.05403 4.08974C3.05403 3.25825 3.73434 2.61573 4.56584 2.61573Z" fill="#FEFEFE"/>
</svg>
