<svg width="15" height="15" viewBox="0 0 15 15" fill="none" xmlns="http://www.w3.org/2000/svg">
<path fill-rule="evenodd" clip-rule="evenodd" d="M3.57946 0.569949C1.66916 0.920208 0.499581 2.32125 0.499581 4.46172C0.499581 5.66817 0.42161 10.6496 0.538567 11.3891C1.12335 15.0863 5.06092 14.4636 7.90689 14.4636C8.88153 14.4636 10.441 14.5803 11.3766 14.4247C13.3649 14.1522 14.4175 12.4788 14.4565 10.5329C14.4565 9.36536 14.4565 8.19783 14.4175 7.03029C14.4175 4.50064 14.8854 2.98285 13.131 1.38722C12.5072 0.803455 11.5326 0.531031 10.48 0.531031C9.31038 0.531031 8.1408 0.531031 6.97123 0.531031C6.07455 0.531031 4.35918 0.453195 3.57946 0.569949ZM6.5034 8.93726C6.85427 8.78159 8.72559 7.6919 8.88153 7.49731L6.54238 6.05735L6.5034 8.93726ZM4.59309 4.34497C3.50149 4.57848 2.99467 5.31791 2.99467 6.56328C2.99467 7.76973 2.79974 9.13185 3.42352 9.94913C4.12526 10.8832 5.25585 10.7275 6.54238 10.7275C9.15443 10.7275 11.9224 11.3891 11.9614 8.43133C11.9614 7.30272 12.1563 5.82384 11.4546 5.04549C10.6359 4.07255 9.85618 4.30605 8.37472 4.30605C7.51703 4.30605 5.25585 4.1893 4.59309 4.34497Z" fill="#FEFEFE"/>
</svg>
