<svg width="54" height="23" viewBox="0 0 54 23" fill="none" xmlns="http://www.w3.org/2000/svg">
<path d="M6.67871 18.0235H7.28343V18.8172C7.51021 18.5149 7.69918 18.3259 7.92595 18.1747C8.26611 17.9857 8.56847 17.9102 8.90863 17.9102C9.1354 17.9102 9.36217 17.948 9.58894 18.0235C9.77792 18.1369 9.96689 18.2503 10.0803 18.4015C10.2315 18.5527 10.3448 18.7417 10.4204 19.044C10.6472 18.6661 10.874 18.3637 11.1763 18.1747C11.4787 17.9857 11.8189 17.9102 12.1968 17.9102C12.4992 17.9102 12.8015 17.9857 13.0661 18.1369C13.2929 18.3259 13.4818 18.5527 13.5952 18.855C13.7464 19.1196 13.7842 19.5731 13.7842 20.1779V22.7857H13.1795V20.1779C13.1795 19.6487 13.1417 19.3086 13.0661 19.1196C12.9905 18.9306 12.8771 18.7794 12.6881 18.6661C12.4992 18.5527 12.3102 18.4771 12.0456 18.4771C11.7433 18.4771 11.4787 18.5905 11.2519 18.7417C10.9874 18.9306 10.7984 19.1574 10.685 19.4598C10.5716 19.7243 10.5338 20.2157 10.5338 20.896V22.7857H9.9291V20.329C9.9291 19.7621 9.8913 19.3842 9.81571 19.1574C9.74012 18.9684 9.62674 18.7794 9.43776 18.6661C9.24879 18.5527 9.05981 18.4771 8.79524 18.4771C8.53068 18.4771 8.26611 18.5527 8.00154 18.7417C7.77477 18.9306 7.5858 19.1574 7.47241 19.422C7.35902 19.7243 7.28343 20.1779 7.28343 20.7448V22.7857H6.67871V18.0235Z" fill="#FEFEFE"/>
<path d="M18.5841 21.1983L19.1133 21.4629C18.9243 21.8031 18.7353 22.0676 18.5085 22.2566C18.2818 22.4834 18.055 22.6346 17.7526 22.7479C17.4881 22.8235 17.1857 22.8991 16.8078 22.8991C16.0519 22.8991 15.4471 22.6346 14.9936 22.1432C14.5401 21.6141 14.3511 21.0472 14.3511 20.4046C14.3511 19.7999 14.5023 19.2708 14.8802 18.7794C15.3715 18.2125 16.0141 17.9102 16.77 17.9102C17.6015 17.9102 18.244 18.2125 18.7353 18.8172C19.0755 19.233 19.2645 19.7999 19.2645 20.4424H14.9558C14.9558 21.0094 15.1448 21.4629 15.4849 21.8031C15.8251 22.1432 16.2786 22.3322 16.77 22.3322C16.9967 22.3322 17.2613 22.2944 17.4881 22.2188C17.7148 22.1054 17.9038 21.992 18.055 21.8787C18.244 21.7275 18.3952 21.5007 18.5841 21.1983ZM18.5841 19.9133C18.5085 19.5731 18.3952 19.3086 18.244 19.1196C18.0928 18.9306 17.866 18.7794 17.6015 18.6661C17.3369 18.5527 17.0723 18.4771 16.8078 18.4771C16.3164 18.4771 15.9385 18.6283 15.5983 18.9306C15.3337 19.1574 15.1448 19.4598 15.0314 19.9133H18.5841Z" fill="#FEFEFE"/>
<path d="M24.6313 16.1716V22.7857H24.0266V21.9542C23.7621 22.2566 23.4597 22.5212 23.1573 22.6723C22.8172 22.8235 22.477 22.8991 22.0991 22.8991C21.4188 22.8991 20.8518 22.6346 20.3983 22.1432C19.9069 21.6897 19.6802 21.0849 19.6802 20.3668C19.6802 19.6865 19.9069 19.1196 20.3983 18.6283C20.8518 18.1369 21.4566 17.9101 22.1369 17.9101C22.5148 17.9101 22.855 17.9857 23.1951 18.1369C23.4975 18.3259 23.7621 18.5527 24.0266 18.8928V16.1716H24.6313ZM22.1747 18.4771C21.8345 18.4771 21.5321 18.5527 21.2298 18.7416C20.9274 18.8928 20.7006 19.1196 20.5495 19.422C20.3605 19.7243 20.2849 20.0645 20.2849 20.4046C20.2849 20.7448 20.3605 21.0472 20.5495 21.3495C20.7006 21.6519 20.9274 21.9164 21.2298 22.0676C21.5321 22.2566 21.8345 22.3322 22.1747 22.3322C22.5148 22.3322 22.8172 22.2566 23.1195 22.0676C23.4219 21.9164 23.6487 21.6897 23.7999 21.3873C23.9888 21.0849 24.0644 20.7826 24.0644 20.4046C24.0644 19.8755 23.8754 19.422 23.4975 19.044C23.1573 18.6661 22.7038 18.4771 22.1747 18.4771Z" fill="#FEFEFE"/>
<path d="M30.1117 19.0062L29.6582 19.3086C29.2046 18.7417 28.6377 18.4771 27.9196 18.4771C27.3149 18.4771 26.8613 18.6661 26.4456 19.044C26.0676 19.3842 25.8786 19.8377 25.8786 20.3668C25.8786 20.7448 25.9542 21.0472 26.1432 21.3495C26.3322 21.6519 26.559 21.9164 26.8613 22.0676C27.2015 22.2566 27.5416 22.3322 27.9196 22.3322C28.6377 22.3322 29.2046 22.0298 29.6582 21.5007L30.1117 21.8031C29.8849 22.1432 29.5826 22.4078 29.2046 22.5968C28.8267 22.7857 28.3731 22.8991 27.8818 22.8991C27.1259 22.8991 26.5212 22.6346 25.992 22.181C25.5007 21.6897 25.2739 21.1227 25.2739 20.4424C25.2739 19.9889 25.3873 19.5354 25.6141 19.1574C25.8409 18.7417 26.181 18.4393 26.559 18.2125C26.9747 18.0235 27.4283 17.9102 27.9196 17.9102C28.2597 17.9102 28.5621 17.948 28.8645 18.0235C29.1668 18.1369 29.3936 18.2503 29.6204 18.4015C29.8094 18.5527 29.9983 18.7794 30.1117 19.0062Z" fill="#FEFEFE"/>
<path d="M30.6785 16.1716H31.2832V22.7857H30.6785V16.1716Z" fill="#FEFEFE"/>
<path d="M34.307 17.9102C35.0629 17.9102 35.6676 18.1747 36.1212 18.7039C36.5747 19.1574 36.8015 19.7621 36.8015 20.4046C36.8015 21.085 36.5747 21.6519 36.0834 22.1432C35.6298 22.6346 35.0251 22.8991 34.307 22.8991C33.5889 22.8991 32.9842 22.6346 32.5306 22.1432C32.0393 21.6519 31.8125 21.085 31.8125 20.4046C31.8125 19.7621 32.0393 19.1952 32.4928 18.7039C32.9464 18.1747 33.5889 17.9102 34.307 17.9102ZM34.307 18.4771C33.8156 18.4771 33.3621 18.6661 32.9842 19.044C32.644 19.422 32.455 19.8755 32.455 20.4046C32.455 20.7448 32.5306 21.085 32.6818 21.3873C32.8708 21.6897 33.0975 21.9164 33.3621 22.0676C33.6645 22.2188 33.9668 22.2944 34.307 22.2944C34.6471 22.2944 34.9495 22.2188 35.2519 22.0676C35.5164 21.9164 35.7432 21.6897 35.9322 21.3873C36.0834 21.085 36.1589 20.7448 36.1589 20.4046C36.1589 19.8755 35.97 19.422 35.6298 19.044C35.2519 18.6661 34.7983 18.4771 34.307 18.4771Z" fill="#FEFEFE"/>
<path d="M37.3306 18.0236H37.9353V20.2535C37.9353 20.7826 37.9731 21.1606 38.0109 21.3495C38.1243 21.6519 38.2754 21.8787 38.54 22.0299C38.7668 22.2188 39.0691 22.2944 39.4093 22.2944C39.7495 22.2944 40.0518 22.2188 40.2786 22.0676C40.5054 21.8787 40.6943 21.6897 40.7699 21.3873C40.8455 21.2362 40.8833 20.8204 40.8833 20.2535V18.0236H41.488V20.3291C41.488 21.0094 41.4124 21.5007 41.2613 21.8409C41.1101 22.181 40.8833 22.4078 40.581 22.5968C40.2786 22.7858 39.8628 22.8991 39.4093 22.8991C38.9558 22.8991 38.5778 22.7858 38.2377 22.5968C37.9353 22.4078 37.7085 22.1432 37.5573 21.8409C37.4062 21.5007 37.3306 20.9716 37.3306 20.2913V18.0236Z" fill="#FEFEFE"/>
<path d="M47.0818 16.1716V22.7857H46.4771V21.9542C46.2125 22.2566 45.9479 22.5212 45.6078 22.6723C45.3054 22.8235 44.9653 22.8991 44.5495 22.8991C43.907 22.8991 43.3023 22.6346 42.8487 22.1432C42.3574 21.6897 42.1306 21.0849 42.1306 20.3668C42.1306 19.6865 42.3574 19.1196 42.8487 18.6283C43.3401 18.1369 43.907 17.9101 44.5873 17.9101C44.9653 17.9101 45.3432 17.9857 45.6456 18.1369C45.9479 18.3259 46.2503 18.5527 46.4771 18.8928V16.1716H47.0818ZM44.6251 18.4771C44.2849 18.4771 43.9826 18.5527 43.6802 18.7416C43.4157 18.8928 43.1889 19.1196 42.9999 19.422C42.8487 19.7243 42.7353 20.0645 42.7353 20.4046C42.7353 20.7448 42.8487 21.0472 42.9999 21.3495C43.1889 21.6519 43.4157 21.9164 43.6802 22.0676C43.9826 22.2566 44.2849 22.3322 44.6251 22.3322C44.9653 22.3322 45.2676 22.2566 45.57 22.0676C45.8723 21.9164 46.0991 21.6897 46.2881 21.3873C46.4393 21.0849 46.5149 20.7826 46.5149 20.4046C46.5149 19.8755 46.3259 19.422 45.9857 19.044C45.6078 18.6661 45.1542 18.4771 44.6251 18.4771Z" fill="#FEFEFE"/>
<path fill-rule="evenodd" clip-rule="evenodd" d="M7.35893 10.7291C8.90853 4.83302 14.3132 0.486572 20.7006 0.486572C25.425 0.486572 29.6203 2.86767 32.077 6.53381C33.8534 5.32436 36.0077 4.60625 38.2754 4.60625C43.151 4.60625 47.2707 7.78105 48.7447 12.1275C50.6722 12.3543 52.4486 13.2991 53.6959 14.6976H46.3636H7.05657H0.0644531C1.61406 12.3165 4.29752 10.7291 7.35893 10.7291Z" fill="#FEFEFE"/>
</svg>
